<svg width="112" height="35" viewBox="0 0 112 35" fill="none" xmlns="http://www.w3.org/2000/svg">
<path d="M6.72656 33.9844H0V0.375H6.72656V33.9844ZM42.0272 33.9844H34.8319L21.8709 11.8594V33.9844H15.1444V0.375H22.3397L35.3006 22.5234V0.375H42.0272V33.9844ZM77.1872 30.5859C75.6247 31.9141 73.8825 32.9375 71.9606 33.6562C70.0387 34.3594 68.0387 34.7109 65.9606 34.7109C64.3669 34.7109 62.8278 34.5 61.3434 34.0781C59.8747 33.6719 58.4997 33.0938 57.2184 32.3438C55.9372 31.5781 54.7653 30.6719 53.7028 29.625C52.6403 28.5625 51.7341 27.3906 50.9841 26.1094C50.2341 24.8125 49.6481 23.4219 49.2262 21.9375C48.82 20.4531 48.6169 18.9141 48.6169 17.3203C48.6169 15.7266 48.82 14.1953 49.2262 12.7266C49.6481 11.2578 50.2341 9.88281 50.9841 8.60156C51.7341 7.30469 52.6403 6.13281 53.7028 5.08594C54.7653 4.02344 55.9372 3.11719 57.2184 2.36719C58.4997 1.61719 59.8747 1.03906 61.3434 0.632812C62.8278 0.210938 64.3669 0 65.9606 0C68.0387 0 70.0387 0.359375 71.9606 1.07812C73.8825 1.78125 75.6247 2.79687 77.1872 4.125L73.6716 9.98438C72.6559 8.95312 71.4841 8.14844 70.1559 7.57031C68.8278 6.97656 67.4294 6.67969 65.9606 6.67969C64.4919 6.67969 63.1091 6.96094 61.8122 7.52344C60.5309 8.08594 59.4059 8.85156 58.4372 9.82031C57.4684 10.7734 56.7028 11.8984 56.1403 13.1953C55.5778 14.4766 55.2966 15.8516 55.2966 17.3203C55.2966 18.8047 55.5778 20.1953 56.1403 21.4922C56.7028 22.7891 57.4684 23.9219 58.4372 24.8906C59.4059 25.8594 60.5309 26.625 61.8122 27.1875C63.1091 27.75 64.4919 28.0312 65.9606 28.0312C66.8044 28.0312 67.6247 27.9297 68.4216 27.7266C69.2184 27.5234 69.9762 27.2422 70.695 26.8828V17.3203H77.1872V30.5859ZM111.41 33.9844H104.214L91.2534 11.8594V33.9844H84.5269V0.375H91.7222L104.683 22.5234V0.375H111.41V33.9844Z" fill="#C52525"/>
</svg>
